<svg version="1.1" id="Layer_1" xmlns="http://www.w3.org/2000/svg" x="0" y="0" viewBox="0 0 259 129.6" style="enable-background:new 0 0 259 129.6" xml:space="preserve"><style>.st2,.st3{fill:#005294;fill-rule:evenodd;clip-rule:evenodd}.st3{fill:#df2f35}</style><path d="M9.6 96.5h1.2v11.6H9.6V96.5zm5.4 4.2-.7-1.8.2 1.8v7.4h-1.2V96.3h.7l4.3 7.5.7 1.7-.2-1.7v-7.4H20v11.8h-.8l-4.2-7.5zm8.9 0-.7-1.8.2 1.8v7.4h-1.2V96.3h.7l4.3 7.5.7 1.7h.1l-.2-1.7v-7.4H29v11.8h-.8l-4.3-7.5zm6.8 1.6c0-2 .3-3.5.9-4.5.6-1 1.6-1.5 2.9-1.5.7 0 1.3.1 1.8.4.5.3.9.7 1.2 1.2.3.5.5 1.2.7 1.9.1.7.2 1.6.2 2.5 0 2-.3 3.5-1 4.5-.6 1-1.6 1.5-2.9 1.5-.7 0-1.3-.1-1.8-.4-.5-.3-.9-.7-1.2-1.2-.3-.5-.5-1.2-.7-1.9 0-.8-.1-1.6-.1-2.5zm1.3 0c0 .7 0 1.3.1 1.9.1.6.2 1.1.4 1.5.2.4.5.8.8 1.1.3.3.7.4 1.2.4.8 0 1.5-.4 1.9-1.2.4-.8.6-2 .6-3.7 0-.6 0-1.3-.1-1.8-.1-.6-.2-1.1-.4-1.6-.2-.4-.5-.8-.8-1.1-.3-.3-.7-.4-1.2-.4-.8 0-1.4.4-1.9 1.2-.4.8-.6 2-.6 3.7zm10.4 2.1.3 1.8.3-1.8 2.2-7.9h1.3L43 108.3h-.7l-3.6-11.8h1.4l2.3 7.9zm8.9.4.9 3.3h1.3L50 96.3h-.7l-3.5 11.8H47l.9-3.3h3.4zm-2.9-1.1 1-3.6.3-1.8.3 1.7 1 3.6h-2.6v.1zm11.5-6.1H57v10.5h-1.2V97.6H53v-1.1h7v1.1h-.1zm1.6-1.1h1.2v11.6h-1.2V96.5zm3.3 5.8c0-2 .3-3.5.9-4.5.6-1 1.6-1.5 2.9-1.5.7 0 1.3.1 1.8.4.5.3.9.7 1.2 1.2.3.5.5 1.2.7 1.9.1.7.2 1.6.2 2.5 0 2-.3 3.5-1 4.5-.6 1-1.6 1.5-2.9 1.5-.7 0-1.3-.1-1.8-.4-.5-.3-.9-.7-1.2-1.2-.3-.5-.5-1.2-.7-1.9-.1-.8-.1-1.6-.1-2.5zm1.3 0c0 .7 0 1.3.1 1.9.1.6.2 1.1.4 1.5.2.4.5.8.8 1.1.3.3.7.4 1.2.4.8 0 1.5-.4 1.9-1.2.4-.8.6-2 .6-3.7 0-.6 0-1.3-.1-1.8-.1-.6-.2-1.1-.4-1.6-.2-.4-.5-.8-.8-1.1-.3-.3-.7-.4-1.2-.4-.8 0-1.4.4-1.9 1.2-.4.8-.6 2-.6 3.7zm9.9-1.6-.7-1.8.2 1.8v7.4h-1.2V96.3h.7l4.3 7.5.7 1.7-.2-1.7v-7.4H81v11.8h-.8l-4.2-7.5zm7.1 5.9c.2.1.5.3.9.4.4.1.8.2 1.3.2.6 0 1.1-.2 1.5-.5.4-.3.6-.8.6-1.4 0-.4-.1-.8-.3-1.1-.2-.3-.5-.6-.8-.9-.3-.3-.7-.5-1.1-.8-.4-.3-.7-.5-1.1-.9-.3-.3-.6-.7-.8-1.1-.2-.4-.3-.9-.3-1.5 0-.9.3-1.6.8-2.1.6-.4 1.3-.7 2.2-.7.6 0 1 0 1.5.1.4.1.8.2 1 .4l-.5 1.2c-.2-.1-.5-.2-.9-.3-.4-.1-.8-.1-1.3-.1-.6 0-1 .1-1.3.4-.3.3-.4.7-.4 1.1 0 .4.1.7.3 1 .2.3.5.6.8.8.3.3.7.5 1.1.8.4.3.7.6 1.1.9.3.3.6.7.8 1.1.2.4.3.9.3 1.5 0 1-.3 1.7-.9 2.3-.6.6-1.4.8-2.4.8-.7 0-1.2-.1-1.6-.2-.4-.1-.8-.3-1-.4l.5-1zM94 96.5h1.2v11.6H94V96.5zm5.4 4.2-.7-1.8.2 1.8v7.4h-1.2V96.3h.7l4.3 7.5.7 1.7h.1l-.2-1.7v-7.4h1.2v11.8h-.8l-4.3-7.5zm16.3 2h-4.3v5.4h-1.2V96.5h1.2v5.1h4.3v-5.1h1.2v11.6h-1.2v-5.4zm3.3-6.2h5.2v1.1h-3.9v3.9h3.6v1.1h-3.6v4.3h4v1.1H119V96.5zm11.6 8.3h-3.3l-.9 3.3h-1.2l3.5-11.8h.7l3.5 11.8h-1.3l-1-3.3zm-2.9-1.1h2.7l-1-3.6-.3-1.7-.3 1.8-1.1 3.5zm11.9 4.4H134V96.5h1.2V107h4.4v1.1zm5.8-10.5v-1.1h-7v1.1h2.9v10.5h1.2V97.6h2.9zm6.8 5.1h-4.3v5.4h-1.2V96.5h1.2v5.1h4.3v-5.1h1.2v11.6h-1.2v-5.4zm9.5 5c-.3.2-.6.4-1 .5-.4.1-.9.1-1.3.1-.6 0-1.1-.1-1.6-.3-.5-.2-.9-.6-1.3-1.1-.4-.5-.6-1.1-.8-1.9-.2-.8-.3-1.7-.3-2.8 0-1.1.1-2 .3-2.8.2-.8.5-1.4.9-1.9s.8-.8 1.3-1c.5-.2 1-.3 1.5-.3s1 0 1.3.1c.3.1.7.2.9.3l-.3 1.1c-.2-.1-.5-.2-.8-.3-.3-.1-.6-.1-1-.1s-.8.1-1.1.3c-.3.2-.6.4-.9.8-.3.4-.5.9-.6 1.5-.2.6-.2 1.4-.2 2.3 0 1.6.3 2.8.8 3.6.6.8 1.3 1.2 2.2 1.2.4 0 .7-.1 1-.2.3-.1.6-.2.8-.4l.2 1.3zm5.6-2.9H164l-.9 3.3h-1.2l3.5-11.8h.7l3.5 11.8h-1.3l-1-3.3zm-3-1.1h2.7l-1-3.6-.3-1.7-.3 1.8-1.1 3.5zm6.4-7.1c.4-.1.8-.2 1.2-.2.4 0 .8-.1 1.2-.1.4 0 .8.1 1.2.2.4.1.7.3 1 .5.3.2.5.6.7 1 .2.4.3.9.3 1.5 0 .9-.2 1.7-.6 2.2-.4.6-.9.9-1.5 1.1l.6.6 2.3 4.6h-1.4l-2.5-5.1-1.2-.2v5.3h-1.2V96.6h-.1zm1.2 5.4h1c.6 0 1.1-.2 1.5-.6.4-.4.5-1 .5-1.8 0-.6-.2-1.1-.5-1.5-.3-.4-.8-.6-1.4-.6h-.7c-.2 0-.4 0-.5.1v4.4h.1zm6.7-5.5h5.2v1.1h-3.9v3.9h3.6v1.1h-3.6v4.3h4v1.1h-5.3V96.5zm14.7 8.3H190l-.9 3.3h-1.2l3.5-11.8h.7l3.5 11.8h-1.3l-1-3.3zm-3-1.1h2.7l-1-3.6-.3-1.7-.3 1.8-1.1 3.5zm6.4-7.2c.2 0 .4-.1.6-.1h2c.8 0 1.5.1 2.1.4.6.3 1 .7 1.4 1.2.4.5.6 1.1.8 1.9.2.7.2 1.5.2 2.4 0 .8-.1 1.6-.2 2.3-.1.7-.4 1.4-.8 1.9s-.8 1-1.4 1.3c-.6.3-1.3.5-2.2.5h-2.4V96.5h-.1zm2.6 1h-1.4v9.5h1.3c.6 0 1.1-.1 1.5-.4.4-.3.7-.6 1-1.1.2-.4.4-1 .5-1.6.1-.6.1-1.2.1-1.9 0-.6 0-1.2-.1-1.7-.1-.6-.2-1.1-.5-1.5-.2-.4-.5-.8-.9-1.1-.4-.1-.9-.2-1.5-.2zm8.3 6.9.3 1.8.3-1.8 2.2-7.9h1.3l-3.5 11.8h-.7l-3.6-11.8h1.4l2.3 7.9zm4.4-2.1c0-2 .3-3.5.9-4.5.6-1 1.6-1.5 2.9-1.5.7 0 1.3.1 1.8.4.5.3.9.7 1.2 1.2.3.5.5 1.2.7 1.9.1.7.2 1.6.2 2.5 0 2-.3 3.5-1 4.5-.6 1-1.6 1.5-2.9 1.5-.7 0-1.3-.1-1.8-.4-.5-.3-.9-.7-1.2-1.2-.3-.5-.5-1.2-.7-1.9 0-.8-.1-1.6-.1-2.5zm1.3 0c0 .7 0 1.3.1 1.9.1.6.2 1.1.4 1.5.2.4.5.8.8 1.1.3.3.7.4 1.2.4.8 0 1.5-.4 1.9-1.2.4-.8.6-2 .6-3.7 0-.6 0-1.3-.1-1.8-.1-.6-.2-1.1-.4-1.6-.2-.4-.5-.8-.8-1.1-.3-.3-.7-.4-1.2-.4-.8 0-1.4.4-1.9 1.2-.4.8-.6 2-.6 3.7zm14.3 5.4c-.3.2-.6.4-1 .5-.4.1-.9.1-1.3.1-.6 0-1.1-.1-1.6-.3-.5-.2-.9-.6-1.3-1.1-.4-.5-.6-1.1-.8-1.9-.2-.8-.3-1.7-.3-2.8 0-1.1.1-2 .3-2.8.2-.8.5-1.4.9-1.9s.8-.8 1.3-1c.5-.2 1-.3 1.5-.3s1 0 1.3.1c.3.1.7.2.9.3l-.3 1.1c-.2-.1-.5-.2-.8-.3-.3-.1-.6-.1-1-.1s-.8.1-1.1.3c-.3.2-.6.4-.9.8-.3.4-.5.9-.6 1.5-.2.6-.2 1.4-.2 2.3 0 1.6.3 2.8.8 3.6.6.8 1.3 1.2 2.2 1.2.4 0 .7-.1 1-.2.3-.1.6-.2.8-.4l.2 1.3zm5.5-2.9h-3.3l-.9 3.3h-1.2l3.5-11.8h.7l3.5 11.8h-1.3l-1-3.3zm-2.9-1.1h2.7l-1-3.6-.3-1.7-.3 1.8-1.1 3.5zm12.1 4c-.3.2-.6.4-1 .5-.4.1-.9.1-1.3.1-.6 0-1.1-.1-1.6-.3-.5-.2-.9-.6-1.3-1.1-.4-.5-.6-1.1-.8-1.9-.2-.8-.3-1.7-.3-2.8 0-1.1.1-2 .3-2.8.2-.8.5-1.4.9-1.9s.8-.8 1.3-1c.5-.2 1-.3 1.5-.3s1 0 1.3.1c.3.1.7.2.9.3l-.3 1.1c-.2-.1-.5-.2-.8-.3-.3-.1-.6-.1-1-.1s-.8.1-1.1.3c-.3.2-.6.4-.9.8-.3.4-.5.9-.6 1.5-.2.6-.2 1.4-.2 2.3 0 1.6.3 2.8.8 3.6.6.8 1.3 1.2 2.2 1.2.4 0 .7-.1 1-.2.3-.1.6-.2.8-.4l.2 1.3zm3.1-4.2-3.1-7h1.5l2.1 5.1.2 1 .2-1 2-5h1.3l-3.1 7v4.6h-1.2v-4.7h.1zm3.5 3.9c0 .3.1.6.3.7.2.2.4.2.6.1 0 .2 0 .3-.1.5 0 .2-.1.3-.2.5s-.2.3-.3.4c-.1.1-.3.2-.4.3l.4.6c.2-.1.3-.2.5-.3.2-.1.3-.3.5-.5.1-.2.3-.5.4-.8.1-.3.1-.6.1-1 0-.5-.1-.9-.3-1.1-.2-.2-.4-.3-.7-.3-.3 0-.5.1-.6.2-.1.2-.2.4-.2.7zm-192.8 6.4c.4-.1.8-.2 1.2-.2.4 0 .8-.1 1.2-.1.4 0 .8.1 1.2.2.4.1.7.3 1 .5.3.2.5.6.7 1 .2.4.3.9.3 1.5 0 .9-.2 1.7-.6 2.2-.4.6-.9.9-1.5 1.1l.6.6 2.3 4.6h-1.4l-2.5-5.1-1.2-.2v5.3h-1.2v-11.4h-.1zm1.2 5.4h1c.6 0 1.1-.2 1.5-.6.4-.4.5-1 .5-1.8 0-.6-.2-1.1-.5-1.5-.3-.4-.8-.6-1.4-.6h-.7c-.2 0-.4 0-.5.1v4.4h.1zm6.8-5.5h5.2v1.1h-3.9v3.9H69v1.1h-3.6v4.3h4v1.1h-5.3v-11.5zm7 10.1c.2.1.5.3.9.4.4.1.8.2 1.3.2.6 0 1.1-.2 1.5-.5.4-.3.6-.8.6-1.4 0-.4-.1-.8-.3-1.1-.2-.3-.5-.6-.8-.9-.3-.3-.7-.5-1.1-.8-.4-.3-.7-.5-1.1-.9-.3-.3-.6-.7-.8-1.1-.2-.4-.3-.9-.3-1.5 0-.9.3-1.6.8-2.1.6-.4 1.3-.7 2.2-.7.6 0 1 0 1.5.1.4.1.8.2 1 .4l-.4 1.1c-.2-.1-.5-.2-.9-.3-.4-.1-.8-.1-1.3-.1-.6 0-1 .1-1.3.4-.3.3-.4.7-.4 1.1 0 .4.1.7.3 1 .2.3.5.6.8.8.3.3.7.5 1.1.8.4.3.7.6 1.1.9.3.3.6.7.8 1.1.2.4.3.9.3 1.5 0 1-.3 1.7-.9 2.3-.6.6-1.4.8-2.4.8-.7 0-1.2-.1-1.6-.2-.4-.1-.8-.3-1-.4l.4-.9zm7.2-10.1h5.2v1.1h-3.9v3.9h3.6v1.1h-3.6v4.3h4v1.1h-5.3v-11.5zm11.6 8.3h-3.3l-.9 3.3h-1.2l3.5-11.8h.7l3.5 11.8h-1.3l-1-3.3zm-3-1.1h2.7l-1-3.6-.3-1.7-.3 1.8-1.1 3.5zm6.4-7.1c.4-.1.8-.2 1.2-.2.4 0 .8-.1 1.2-.1.4 0 .8.1 1.2.2.4.1.7.3 1 .5.3.2.5.6.7 1 .2.4.3.9.3 1.5 0 .9-.2 1.7-.6 2.2-.4.6-.9.9-1.5 1.1l.6.6 2.3 4.6h-1.4l-2.5-5.1-1.2-.2v5.3h-1.2v-11.4h-.1zm1.2 5.4h1c.6 0 1.1-.2 1.5-.6.4-.4.5-1 .5-1.8 0-.6-.2-1.1-.5-1.5-.3-.4-.8-.6-1.4-.6h-.7c-.2 0-.4 0-.5.1v4.4h.1zm12.4 5.7c-.3.2-.6.4-1 .5-.4.1-.9.1-1.3.1-.6 0-1.1-.1-1.6-.3-.5-.2-.9-.6-1.3-1.1-.4-.5-.6-1.1-.8-1.9-.2-.8-.3-1.7-.3-2.8 0-1.1.1-2 .3-2.8.2-.8.5-1.4.9-1.9s.8-.8 1.3-1c.5-.2 1-.3 1.5-.3s1 0 1.3.1c.3.1.7.2.9.3l-.3 1.1c-.2-.1-.5-.2-.8-.3-.3-.1-.6-.1-1-.1s-.8.1-1.1.3c-.3.2-.6.4-.9.8-.3.4-.5.9-.6 1.5-.2.6-.2 1.4-.2 2.3 0 1.6.3 2.8.8 3.6.6.8 1.3 1.2 2.2 1.2.4 0 .7-.1 1-.2.3-.1.6-.2.8-.4l.2 1.3zm7-5h-4.3v5.4h-1.2v-11.6h1.2v5.1h4.3v-5.1h1.2v11.6h-1.2v-5.4zm11 2.1h-3.3l-.9 3.3h-1.2l3.5-11.8h.7l3.5 11.8h-1.3l-1-3.3zm-3-1.1h2.7l-1-3.6-.3-1.7-.3 1.8-1.1 3.5zm8.1-3-.7-1.8.2 1.8v7.4h-1.2v-11.8h.7l4.3 7.5.7 1.7h.1l-.2-1.7v-7.4h1.2v11.8h-.8l-4.3-7.5zm7.2-4.2c.2 0 .4-.1.6-.1h2c.8 0 1.5.1 2.1.4.6.3 1 .7 1.4 1.2.4.5.6 1.1.8 1.9.2.7.2 1.5.2 2.4 0 .8-.1 1.6-.2 2.3-.1.7-.4 1.4-.8 1.9s-.8 1-1.4 1.3c-.6.3-1.3.5-2.2.5h-2.4v-11.8h-.1zm2.6 1h-1.4v9.5h1.3c.6 0 1.1-.1 1.5-.4.4-.3.7-.6 1-1.1.2-.4.4-1 .5-1.6.1-.6.1-1.2.1-1.9 0-.6 0-1.2-.1-1.7-.1-.6-.2-1.1-.5-1.5-.2-.4-.5-.8-.9-1.1-.4-.1-.9-.2-1.5-.2zm15.3.1h-2.9v10.5H151v-10.5h-2.9v-1.1h7v1.1zm1.3-1c.4-.1.8-.2 1.2-.2.4 0 .8-.1 1.2-.1.4 0 .8.1 1.2.2.4.1.7.3 1 .5.3.2.5.6.7 1 .2.4.3.9.3 1.5 0 .9-.2 1.7-.6 2.2-.4.6-.9.9-1.5 1.1l.6.6 2.3 4.6h-1.4l-2.5-5.1-1.2-.2v5.3h-1.2v-11.4h-.1zm1.3 5.4h1c.6 0 1.1-.2 1.5-.6.4-.4.5-1 .5-1.8 0-.6-.2-1.1-.5-1.5-.3-.4-.8-.6-1.4-.6h-.7c-.2 0-.4 0-.5.1v4.4h.1zm10.8 2.8h-3.3l-.9 3.3h-1.2l3.5-11.8h.7l3.5 11.8h-1.3l-1-3.3zm-3-1.1h2.7l-1-3.6-.3-1.7-.3 1.8-1.1 3.5zm6.6-7.2h1.2v11.6h-1.2v-11.6zm5.4 4.2-.7-1.8.2 1.8v7.4h-1.2v-11.8h.7l4.3 7.5.7 1.7h.1l-.2-1.7v-7.4h1.2v11.8h-.8l-4.3-7.5zm7.5-4.2h1.2v11.6H185v-11.6zm5.4 4.2-.7-1.8.2 1.8v7.4h-1.2v-11.8h.7l4.3 7.5.7 1.7h.1l-.2-1.7v-7.4h1.2v11.8h-.8l-4.3-7.5zm10.3 1.6h3.2v5.1c-.3.3-.7.5-1.2.7-.5.1-1 .2-1.5.2-.6 0-1.2-.1-1.7-.3-.5-.2-.9-.6-1.3-1.1-.4-.5-.6-1.1-.8-1.9-.2-.8-.3-1.7-.3-2.7 0-1.1.1-2 .3-2.8.2-.8.5-1.4.9-1.9s.8-.8 1.3-1.1c.5-.2 1-.3 1.6-.3.5 0 1 0 1.3.1.4.1.7.2.9.3l-.3 1.1c-.2-.1-.5-.2-.8-.3-.3-.1-.7-.1-1.1-.1-.4 0-.8.1-1.1.2-.4.2-.7.4-1 .8-.3.4-.5.9-.7 1.5-.2.6-.2 1.4-.2 2.3 0 1.7.3 2.9.8 3.7.5.8 1.2 1.2 2.2 1.2.6 0 1.1-.1 1.4-.4v-3.4l-2.1-.3v-.6zm-88.5-53.3c0 1 .2 1.5.7 1.5.8 0 1.7-.2 2.8-.7l1.2 2.9c-3.2 2.4-6.4 3.6-9.4 3.6-1.8 0-3.2-.5-4.2-1.5s-1.6-2.4-1.6-4.2c0-1.8.9-6 2.7-12.4 1.8-6.4 2.8-10.9 2.9-13.5 0-.6-.2-1.2-.6-1.9-.4-.7-.8-1.3-1.1-1.7l-.6-.6.1-1.1c2.2-.7 6.1-1.1 11.7-1.1.6 1.1.8 2.2.8 3.4 0 2-.9 6.5-2.8 13.3-1.7 6.9-2.6 11.5-2.6 14z" style="fill:#005294"/><path d="M147.2 52.9h-12.9v20h-8.5V25.6h8.5V45h12.9V25.6h8.5v47.3h-8.5v-20zm33.7 9.3h-11.1L167 72.9h-8.4l13.7-47.6h6.7l13.8 47.6h-8.9l-3-10.7zm-9.3-7h7.8l-2.7-11-1.1-7.4h-.3l-1.1 7.5-2.6 10.9zm24-29.1c1.8-.4 3.8-.7 5.9-.9 2.1-.2 3.9-.3 5.5-.3 1.9 0 3.8.2 5.7.6 1.8.4 3.5 1.1 4.9 2.1 1.4 1 2.6 2.4 3.4 4.1.9 1.7 1.3 3.9 1.3 6.6 0 3.8-.7 6.9-2.1 9.4-1.4 2.4-3.4 4.1-5.8 5l2.7 2.2 8.7 18.1H216l-8.2-18.6-3.6-.9V73h-8.5V26.1h-.1zm8.5 21.5h2.9c2.1 0 3.7-.6 4.8-1.9 1.1-1.3 1.6-3.3 1.6-6 0-2-.5-3.7-1.4-5-.9-1.3-2.3-1.9-4.3-1.9-.7 0-1.4 0-2.1.1-.7 0-1.2.1-1.6.3v14.4h.1zm51.4-14.1v-7.8h-30.9v7.8h11.2v39.4h8.5V33.5h11.2z" style="fill:#df2f35"/><circle class="st2" cx="111.9" cy="27.1" r="5.5"/><path class="st2" d="M22.6 11.2C7.7 21.3.1 40.2 5 58.6c6.3 23.3 30.2 37.2 53.6 30.9 19-5.1 31.8-22 32.4-40.8-2.7 15.4-14 28.6-30 33-22 5.9-44.7-7.2-50.6-29.2C6.3 37 11.5 21.2 22.6 11.2z"/><path class="st3" d="M71.5 71.5c12.6-8.6 19-24.5 14.8-40C81 11.8 60.8.1 41.1 5.4 25 9.7 14.3 24 13.7 39.8 16 26.8 25.5 15.7 39.1 12c18.6-5 37.7 6 42.7 24.6 3.4 13.1-1 26.4-10.3 34.9z"/><path class="st2" d="M22.9 47.7c-.9-2.2-1.4-4.5-1.4-6.8 0-8.3 6.4-14.7 14.8-14.7 4.6 0 9.1 2.1 12.1 5.6 3-3.5 7.5-5.6 12.1-5.6 8.3 0 14.8 6.4 14.8 14.7 0 2.3-.5 4.5-1.4 6.7h-6.7l-1.6-2.7c-.3-.5-1-.4-1.2.2l-2 5.6-.8-2.5c-.1-.3-.3-.5-.6-.5h-3l-1.6-7.8c-.2-.8-1.2-.7-1.3 0l-1.6 12-.4-3.7c-.1-.7-.8-.6-1.3-.6l-1.2-4c-.2-.7-1.2-.6-1.3.1l-.7 3.9h-3l-.7-3c-.2-.7-1.1-.7-1.3-.1l-1.3 4.4-3-15c-.2-.7-1.2-.7-1.3.1l-2.7 19.1c-.2-.8-.9-5-1.5-5.3-.3-.1-5.7-.1-10.9-.1z"/><path class="st3" d="m48.3 75.5-3.7-3.8C34.5 62.8 26.9 56 23.5 49H33l1.8 7.8c.2.7 1.2.7 1.3-.1l2.7-18.9 2.8 13.9c.2.7 1.1.7 1.3.1l1.4-4.6c.2.8.2 1.7.9 1.7h4.1c.8 0 .7-1.1.9-2.3.7 2.3.5 2.3 1.7 2.3l.9 8.4c.1.8 1.2.8 1.3.1l1.8-13.5.9 4.5c.1.3.4.5.7.5h2.9l1.2 4c.2.6 1 .7 1.2.1l2.3-6.2c1.1 1.8 1.1 2.1 1.8 2.2h6.3c-3.4 7-11 13.8-21.1 22.8l-3.8 3.7zm12.6-27.9"/></svg>