<?xml version="1.0" encoding="utf-8"?>
<!-- Generator: Adobe Illustrator 21.1.0, SVG Export Plug-In . SVG Version: 6.00 Build 0)  -->
<svg version="1.1" id="Layer_1" xmlns="http://www.w3.org/2000/svg" xmlns:xlink="http://www.w3.org/1999/xlink" x="0px" y="0px"
	 viewBox="0 0 259 129.6" style="enable-background:new 0 0 259 129.6;" xml:space="preserve">
<style type="text/css">
	.st0{fill:#005294;}
	.st1{fill:#DF2F35;}
	.st2{fill-rule:evenodd;clip-rule:evenodd;fill:#005294;}
	.st3{fill-rule:evenodd;clip-rule:evenodd;fill:#DF2F35;}
</style>
<g>
	<path class="st0" d="M9.6,96.5h1.2v11.6H9.6V96.5L9.6,96.5z M15,100.7l-0.7-1.8h0l0.2,1.8v7.4h-1.2V96.3h0.7l4.3,7.5l0.7,1.7H19
		l-0.2-1.7v-7.4H20v11.8h-0.8L15,100.7L15,100.7z M23.9,100.7l-0.7-1.8h0l0.2,1.8v7.4h-1.2V96.3h0.7l4.3,7.5l0.7,1.7h0.1l-0.2-1.7
		v-7.4h1.2v11.8h-0.8L23.9,100.7L23.9,100.7z M30.7,102.3c0-2,0.3-3.5,0.9-4.5c0.6-1,1.6-1.5,2.9-1.5c0.7,0,1.3,0.1,1.8,0.4
		c0.5,0.3,0.9,0.7,1.2,1.2c0.3,0.5,0.5,1.2,0.7,1.9c0.1,0.7,0.2,1.6,0.2,2.5c0,2-0.3,3.5-1,4.5c-0.6,1-1.6,1.5-2.9,1.5
		c-0.7,0-1.3-0.1-1.8-0.4c-0.5-0.3-0.9-0.7-1.2-1.2c-0.3-0.5-0.5-1.2-0.7-1.9C30.8,104,30.7,103.2,30.7,102.3L30.7,102.3z M32,102.3
		c0,0.7,0,1.3,0.1,1.9c0.1,0.6,0.2,1.1,0.4,1.5c0.2,0.4,0.5,0.8,0.8,1.1c0.3,0.3,0.7,0.4,1.2,0.4c0.8,0,1.5-0.4,1.9-1.2
		c0.4-0.8,0.6-2,0.6-3.7c0-0.6,0-1.3-0.1-1.8c-0.1-0.6-0.2-1.1-0.4-1.6c-0.2-0.4-0.5-0.8-0.8-1.1c-0.3-0.3-0.7-0.4-1.2-0.4
		c-0.8,0-1.4,0.4-1.9,1.2C32.2,99.4,32,100.6,32,102.3L32,102.3z M42.4,104.4l0.3,1.8h0l0.3-1.8l2.2-7.9h1.3l-3.5,11.8h-0.7
		l-3.6-11.8h1.4L42.4,104.4L42.4,104.4z M51.3,104.8l0.9,3.3h1.3l-3.5-11.8h-0.7l-3.5,11.8h1.2l0.9-3.3H51.3L51.3,104.8z
		 M48.4,103.7l1-3.6l0.3-1.8h0l0.3,1.7l1,3.6H48.4L48.4,103.7z M59.9,97.6h-2.9v10.5h-1.2V97.6H53v-1.1h7V97.6L59.9,97.6z
		 M61.5,96.5h1.2v11.6h-1.2V96.5L61.5,96.5z M64.8,102.3c0-2,0.3-3.5,0.9-4.5c0.6-1,1.6-1.5,2.9-1.5c0.7,0,1.3,0.1,1.8,0.4
		c0.5,0.3,0.9,0.7,1.2,1.2c0.3,0.5,0.5,1.2,0.7,1.9c0.1,0.7,0.2,1.6,0.2,2.5c0,2-0.3,3.5-1,4.5c-0.6,1-1.6,1.5-2.9,1.5
		c-0.7,0-1.3-0.1-1.8-0.4c-0.5-0.3-0.9-0.7-1.2-1.2c-0.3-0.5-0.5-1.2-0.7-1.9C64.8,104,64.8,103.2,64.8,102.3L64.8,102.3z
		 M66.1,102.3c0,0.7,0,1.3,0.1,1.9c0.1,0.6,0.2,1.1,0.4,1.5c0.2,0.4,0.5,0.8,0.8,1.1c0.3,0.3,0.7,0.4,1.2,0.4c0.8,0,1.5-0.4,1.9-1.2
		c0.4-0.8,0.6-2,0.6-3.7c0-0.6,0-1.3-0.1-1.8c-0.1-0.6-0.2-1.1-0.4-1.6c-0.2-0.4-0.5-0.8-0.8-1.1c-0.3-0.3-0.7-0.4-1.2-0.4
		c-0.8,0-1.4,0.4-1.9,1.2C66.3,99.4,66.1,100.6,66.1,102.3L66.1,102.3z M76,100.7l-0.7-1.8h0l0.2,1.8v7.4h-1.2V96.3H75l4.3,7.5
		l0.7,1.7H80l-0.2-1.7v-7.4H81v11.8h-0.8L76,100.7L76,100.7z M83.1,106.6c0.2,0.1,0.5,0.3,0.9,0.4c0.4,0.1,0.8,0.2,1.3,0.2
		c0.6,0,1.1-0.2,1.5-0.5c0.4-0.3,0.6-0.8,0.6-1.4c0-0.4-0.1-0.8-0.3-1.1c-0.2-0.3-0.5-0.6-0.8-0.9c-0.3-0.3-0.7-0.5-1.1-0.8
		c-0.4-0.3-0.7-0.5-1.1-0.9c-0.3-0.3-0.6-0.7-0.8-1.1c-0.2-0.4-0.3-0.9-0.3-1.5c0-0.9,0.3-1.6,0.8-2.1c0.6-0.4,1.3-0.7,2.2-0.7
		c0.6,0,1,0,1.5,0.1c0.4,0.1,0.8,0.2,1,0.4L88,97.9c-0.2-0.1-0.5-0.2-0.9-0.3c-0.4-0.1-0.8-0.1-1.3-0.1c-0.6,0-1,0.1-1.3,0.4
		c-0.3,0.3-0.4,0.7-0.4,1.1c0,0.4,0.1,0.7,0.3,1c0.2,0.3,0.5,0.6,0.8,0.8c0.3,0.3,0.7,0.5,1.1,0.8c0.4,0.3,0.7,0.6,1.1,0.9
		c0.3,0.3,0.6,0.7,0.8,1.1c0.2,0.4,0.3,0.9,0.3,1.5c0,1-0.3,1.7-0.9,2.3c-0.6,0.6-1.4,0.8-2.4,0.8c-0.7,0-1.2-0.1-1.6-0.2
		c-0.4-0.1-0.8-0.3-1-0.4L83.1,106.6L83.1,106.6z M94,96.5h1.2v11.6H94V96.5L94,96.5z M99.4,100.7l-0.7-1.8h0l0.2,1.8v7.4h-1.2V96.3
		h0.7l4.3,7.5l0.7,1.7h0.1l-0.2-1.7v-7.4h1.2v11.8h-0.8L99.4,100.7L99.4,100.7z M115.7,102.7h-4.3v5.4h-1.2V96.5h1.2v5.1h4.3v-5.1
		h1.2v11.6h-1.2V102.7L115.7,102.7z M119,96.5h5.2v1.1h-3.9v3.9h3.6v1.1h-3.6v4.3h4v1.1H119V96.5L119,96.5z M130.6,104.8h-3.3
		l-0.9,3.3h-1.2l3.5-11.8h0.7l3.5,11.8h-1.3L130.6,104.8L130.6,104.8z M127.7,103.7h2.7l-1-3.6l-0.3-1.7h0l-0.3,1.8L127.7,103.7
		L127.7,103.7z M139.6,108.1H134V96.5h1.2V107h4.4V108.1L139.6,108.1z M145.4,97.6v-1.1h-7v1.1h2.9v10.5h1.2V97.6H145.4L145.4,97.6z
		 M152.2,102.7h-4.3v5.4h-1.2V96.5h1.2v5.1h4.3v-5.1h1.2v11.6h-1.2V102.7L152.2,102.7z M161.7,107.7c-0.3,0.2-0.6,0.4-1,0.5
		c-0.4,0.1-0.9,0.1-1.3,0.1c-0.6,0-1.1-0.1-1.6-0.3c-0.5-0.2-0.9-0.6-1.3-1.1c-0.4-0.5-0.6-1.1-0.8-1.9c-0.2-0.8-0.3-1.7-0.3-2.8
		c0-1.1,0.1-2,0.3-2.8c0.2-0.8,0.5-1.4,0.9-1.9c0.4-0.5,0.8-0.8,1.3-1c0.5-0.2,1-0.3,1.5-0.3c0.5,0,1,0,1.3,0.1
		c0.3,0.1,0.7,0.2,0.9,0.3l-0.3,1.1c-0.2-0.1-0.5-0.2-0.8-0.3c-0.3-0.1-0.6-0.1-1-0.1s-0.8,0.1-1.1,0.3c-0.3,0.2-0.6,0.4-0.9,0.8
		c-0.3,0.4-0.5,0.9-0.6,1.5c-0.2,0.6-0.2,1.4-0.2,2.3c0,1.6,0.3,2.8,0.8,3.6c0.6,0.8,1.3,1.2,2.2,1.2c0.4,0,0.7-0.1,1-0.2
		c0.3-0.1,0.6-0.2,0.8-0.4L161.7,107.7L161.7,107.7z M167.3,104.8H164l-0.9,3.3h-1.2l3.5-11.8h0.7l3.5,11.8h-1.3L167.3,104.8
		L167.3,104.8z M164.3,103.7h2.7l-1-3.6l-0.3-1.7h0l-0.3,1.8L164.3,103.7L164.3,103.7z M170.7,96.6c0.4-0.1,0.8-0.2,1.2-0.2
		c0.4,0,0.8-0.1,1.2-0.1c0.4,0,0.8,0.1,1.2,0.2c0.4,0.1,0.7,0.3,1,0.5c0.3,0.2,0.5,0.6,0.7,1c0.2,0.4,0.3,0.9,0.3,1.5
		c0,0.9-0.2,1.7-0.6,2.2c-0.4,0.6-0.9,0.9-1.5,1.1l0.6,0.6l2.3,4.6h-1.4l-2.5-5.1l-1.2-0.2v5.3h-1.2V96.6L170.7,96.6z M171.9,102h1
		c0.6,0,1.1-0.2,1.5-0.6c0.4-0.4,0.5-1,0.5-1.8c0-0.6-0.2-1.1-0.5-1.5c-0.3-0.4-0.8-0.6-1.4-0.6c-0.2,0-0.5,0-0.7,0
		c-0.2,0-0.4,0-0.5,0.1V102L171.9,102z M178.6,96.5h5.2v1.1h-3.9v3.9h3.6v1.1h-3.6v4.3h4v1.1h-5.3V96.5L178.6,96.5z M193.3,104.8
		H190l-0.9,3.3h-1.2l3.5-11.8h0.7l3.5,11.8h-1.3L193.3,104.8L193.3,104.8z M190.3,103.7h2.7l-1-3.6l-0.3-1.7h0l-0.3,1.8L190.3,103.7
		L190.3,103.7z M196.7,96.5c0.2,0,0.4-0.1,0.6-0.1c0.2,0,0.4,0,0.7,0c0.2,0,0.4,0,0.7,0c0.2,0,0.4,0,0.6,0c0.8,0,1.5,0.1,2.1,0.4
		c0.6,0.3,1,0.7,1.4,1.2c0.4,0.5,0.6,1.1,0.8,1.9c0.2,0.7,0.2,1.5,0.2,2.4c0,0.8-0.1,1.6-0.2,2.3c-0.1,0.7-0.4,1.4-0.8,1.9
		s-0.8,1-1.4,1.3c-0.6,0.3-1.3,0.5-2.2,0.5c-0.1,0-0.3,0-0.5,0c-0.2,0-0.5,0-0.7,0c-0.2,0-0.5,0-0.7,0c-0.2,0-0.4,0-0.5,0V96.5
		L196.7,96.5z M199.3,97.5c-0.1,0-0.2,0-0.4,0c-0.1,0-0.3,0-0.4,0c-0.1,0-0.2,0-0.3,0c-0.1,0-0.2,0-0.3,0v9.5c0,0,0.1,0,0.2,0
		c0.1,0,0.2,0,0.4,0c0.1,0,0.2,0,0.4,0c0.1,0,0.2,0,0.3,0c0.6,0,1.1-0.1,1.5-0.4c0.4-0.3,0.7-0.6,1-1.1c0.2-0.4,0.4-1,0.5-1.6
		c0.1-0.6,0.1-1.2,0.1-1.9c0-0.6,0-1.2-0.1-1.7c-0.1-0.6-0.2-1.1-0.5-1.5c-0.2-0.4-0.5-0.8-0.9-1.1
		C200.4,97.6,199.9,97.5,199.3,97.5L199.3,97.5z M207.6,104.4l0.3,1.8h0l0.3-1.8l2.2-7.9h1.3l-3.5,11.8h-0.7l-3.6-11.8h1.4
		L207.6,104.4L207.6,104.4z M212,102.3c0-2,0.3-3.5,0.9-4.5c0.6-1,1.6-1.5,2.9-1.5c0.7,0,1.3,0.1,1.8,0.4c0.5,0.3,0.9,0.7,1.2,1.2
		c0.3,0.5,0.5,1.2,0.7,1.9c0.1,0.7,0.2,1.6,0.2,2.5c0,2-0.3,3.5-1,4.5c-0.6,1-1.6,1.5-2.9,1.5c-0.7,0-1.3-0.1-1.8-0.4
		c-0.5-0.3-0.9-0.7-1.2-1.2c-0.3-0.5-0.5-1.2-0.7-1.9C212.1,104,212,103.2,212,102.3L212,102.3z M213.3,102.3c0,0.7,0,1.3,0.1,1.9
		c0.1,0.6,0.2,1.1,0.4,1.5c0.2,0.4,0.5,0.8,0.8,1.1c0.3,0.3,0.7,0.4,1.2,0.4c0.8,0,1.5-0.4,1.9-1.2c0.4-0.8,0.6-2,0.6-3.7
		c0-0.6,0-1.3-0.1-1.8c-0.1-0.6-0.2-1.1-0.4-1.6c-0.2-0.4-0.5-0.8-0.8-1.1c-0.3-0.3-0.7-0.4-1.2-0.4c-0.8,0-1.4,0.4-1.9,1.2
		C213.5,99.4,213.3,100.6,213.3,102.3L213.3,102.3z M227.6,107.7c-0.3,0.2-0.6,0.4-1,0.5c-0.4,0.1-0.9,0.1-1.3,0.1
		c-0.6,0-1.1-0.1-1.6-0.3c-0.5-0.2-0.9-0.6-1.3-1.1c-0.4-0.5-0.6-1.1-0.8-1.9c-0.2-0.8-0.3-1.7-0.3-2.8c0-1.1,0.1-2,0.3-2.8
		c0.2-0.8,0.5-1.4,0.9-1.9c0.4-0.5,0.8-0.8,1.3-1c0.5-0.2,1-0.3,1.5-0.3c0.5,0,1,0,1.3,0.1c0.3,0.1,0.7,0.2,0.9,0.3l-0.3,1.1
		c-0.2-0.1-0.5-0.2-0.8-0.3c-0.3-0.1-0.6-0.1-1-0.1s-0.8,0.1-1.1,0.3c-0.3,0.2-0.6,0.4-0.9,0.8c-0.3,0.4-0.5,0.9-0.6,1.5
		c-0.2,0.6-0.2,1.4-0.2,2.3c0,1.6,0.3,2.8,0.8,3.6c0.6,0.8,1.3,1.2,2.2,1.2c0.4,0,0.7-0.1,1-0.2c0.3-0.1,0.6-0.2,0.8-0.4
		L227.6,107.7L227.6,107.7z M233.1,104.8h-3.3l-0.9,3.3h-1.2l3.5-11.8h0.7l3.5,11.8h-1.3L233.1,104.8L233.1,104.8z M230.2,103.7h2.7
		l-1-3.6l-0.3-1.7h0l-0.3,1.8L230.2,103.7L230.2,103.7z M242.3,107.7c-0.3,0.2-0.6,0.4-1,0.5c-0.4,0.1-0.9,0.1-1.3,0.1
		c-0.6,0-1.1-0.1-1.6-0.3c-0.5-0.2-0.9-0.6-1.3-1.1c-0.4-0.5-0.6-1.1-0.8-1.9c-0.2-0.8-0.3-1.7-0.3-2.8c0-1.1,0.1-2,0.3-2.8
		c0.2-0.8,0.5-1.4,0.9-1.9c0.4-0.5,0.8-0.8,1.3-1c0.5-0.2,1-0.3,1.5-0.3c0.5,0,1,0,1.3,0.1c0.3,0.1,0.7,0.2,0.9,0.3l-0.3,1.1
		c-0.2-0.1-0.5-0.2-0.8-0.3c-0.3-0.1-0.6-0.1-1-0.1s-0.8,0.1-1.1,0.3c-0.3,0.2-0.6,0.4-0.9,0.8c-0.3,0.4-0.5,0.9-0.6,1.5
		c-0.2,0.6-0.2,1.4-0.2,2.3c0,1.6,0.3,2.8,0.8,3.6c0.6,0.8,1.3,1.2,2.2,1.2c0.4,0,0.7-0.1,1-0.2c0.3-0.1,0.6-0.2,0.8-0.4
		L242.3,107.7L242.3,107.7z M245.4,103.5l-3.1-7h1.5l2.1,5.1l0.2,1h0l0.2-1l2-5h1.3l-3.1,7v4.6h-1.2V103.5L245.4,103.5z
		 M248.9,107.4c0,0.3,0.1,0.6,0.3,0.7c0.2,0.2,0.4,0.2,0.6,0.1c0,0.2,0,0.3-0.1,0.5c0,0.2-0.1,0.3-0.2,0.5c-0.1,0.2-0.2,0.3-0.3,0.4
		c-0.1,0.1-0.3,0.2-0.4,0.3l0.4,0.6c0.2-0.1,0.3-0.2,0.5-0.3c0.2-0.1,0.3-0.3,0.5-0.5c0.1-0.2,0.3-0.5,0.4-0.8
		c0.1-0.3,0.1-0.6,0.1-1c0-0.5-0.1-0.9-0.3-1.1c-0.2-0.2-0.4-0.3-0.7-0.3c-0.3,0-0.5,0.1-0.6,0.2C249,106.9,248.9,107.1,248.9,107.4
		L248.9,107.4z M56.1,113.8c0.4-0.1,0.8-0.2,1.2-0.2c0.4,0,0.8-0.1,1.2-0.1c0.4,0,0.8,0.1,1.2,0.2c0.4,0.1,0.7,0.3,1,0.5
		c0.3,0.2,0.5,0.6,0.7,1c0.2,0.4,0.3,0.9,0.3,1.5c0,0.9-0.2,1.7-0.6,2.2c-0.4,0.6-0.9,0.9-1.5,1.1l0.6,0.6l2.3,4.6h-1.4l-2.5-5.1
		l-1.2-0.2v5.3h-1.2V113.8L56.1,113.8z M57.3,119.2h1c0.6,0,1.1-0.2,1.5-0.6c0.4-0.4,0.5-1,0.5-1.8c0-0.6-0.2-1.1-0.5-1.5
		c-0.3-0.4-0.8-0.6-1.4-0.6c-0.2,0-0.5,0-0.7,0c-0.2,0-0.4,0-0.5,0.1V119.2L57.3,119.2z M64.1,113.7h5.2v1.1h-3.9v3.9h3.6v1.1h-3.6
		v4.3h4v1.1h-5.3V113.7L64.1,113.7z M71.1,123.8c0.2,0.1,0.5,0.3,0.9,0.4c0.4,0.1,0.8,0.2,1.3,0.2c0.6,0,1.1-0.2,1.5-0.5
		c0.4-0.3,0.6-0.8,0.6-1.4c0-0.4-0.1-0.8-0.3-1.1c-0.2-0.3-0.5-0.6-0.8-0.9c-0.3-0.3-0.7-0.5-1.1-0.8c-0.4-0.3-0.7-0.5-1.1-0.9
		c-0.3-0.3-0.6-0.7-0.8-1.1c-0.2-0.4-0.3-0.9-0.3-1.5c0-0.9,0.3-1.6,0.8-2.1c0.6-0.4,1.3-0.7,2.2-0.7c0.6,0,1,0,1.5,0.1
		c0.4,0.1,0.8,0.2,1,0.4l-0.4,1.1c-0.2-0.1-0.5-0.2-0.9-0.3c-0.4-0.1-0.8-0.1-1.3-0.1c-0.6,0-1,0.1-1.3,0.4
		c-0.3,0.3-0.4,0.7-0.4,1.1c0,0.4,0.1,0.7,0.3,1c0.2,0.3,0.5,0.6,0.8,0.8c0.3,0.3,0.7,0.5,1.1,0.8c0.4,0.3,0.7,0.6,1.1,0.9
		c0.3,0.3,0.6,0.7,0.8,1.1c0.2,0.4,0.3,0.9,0.3,1.5c0,1-0.3,1.7-0.9,2.3c-0.6,0.6-1.4,0.8-2.4,0.8c-0.7,0-1.2-0.1-1.6-0.2
		c-0.4-0.1-0.8-0.3-1-0.4L71.1,123.8L71.1,123.8z M78.3,113.7h5.2v1.1h-3.9v3.9h3.6v1.1h-3.6v4.3h4v1.1h-5.3V113.7L78.3,113.7z
		 M89.9,122h-3.3l-0.9,3.3h-1.2l3.5-11.8h0.7l3.5,11.8h-1.3L89.9,122L89.9,122z M86.9,120.9h2.7l-1-3.6l-0.3-1.7h0l-0.3,1.8
		L86.9,120.9L86.9,120.9z M93.3,113.8c0.4-0.1,0.8-0.2,1.2-0.2c0.4,0,0.8-0.1,1.2-0.1c0.4,0,0.8,0.1,1.2,0.2c0.4,0.1,0.7,0.3,1,0.5
		c0.3,0.2,0.5,0.6,0.7,1c0.2,0.4,0.3,0.9,0.3,1.5c0,0.9-0.2,1.7-0.6,2.2c-0.4,0.6-0.9,0.9-1.5,1.1l0.6,0.6l2.3,4.6h-1.4l-2.5-5.1
		l-1.2-0.2v5.3h-1.2V113.8L93.3,113.8z M94.5,119.2h1c0.6,0,1.1-0.2,1.5-0.6c0.4-0.4,0.5-1,0.5-1.8c0-0.6-0.2-1.1-0.5-1.5
		c-0.3-0.4-0.8-0.6-1.4-0.6c-0.2,0-0.5,0-0.7,0c-0.2,0-0.4,0-0.5,0.1V119.2L94.5,119.2z M106.9,124.9c-0.3,0.2-0.6,0.4-1,0.5
		c-0.4,0.1-0.9,0.1-1.3,0.1c-0.6,0-1.1-0.1-1.6-0.3c-0.5-0.2-0.9-0.6-1.3-1.1c-0.4-0.5-0.6-1.1-0.8-1.9c-0.2-0.8-0.3-1.7-0.3-2.8
		c0-1.1,0.1-2,0.3-2.8c0.2-0.8,0.5-1.4,0.9-1.9c0.4-0.5,0.8-0.8,1.3-1c0.5-0.2,1-0.3,1.5-0.3c0.5,0,1,0,1.3,0.1
		c0.3,0.1,0.7,0.2,0.9,0.3l-0.3,1.1c-0.2-0.1-0.5-0.2-0.8-0.3c-0.3-0.1-0.6-0.1-1-0.1c-0.4,0-0.8,0.1-1.1,0.3
		c-0.3,0.2-0.6,0.4-0.9,0.8c-0.3,0.4-0.5,0.9-0.6,1.5c-0.2,0.6-0.2,1.4-0.2,2.3c0,1.6,0.3,2.8,0.8,3.6c0.6,0.8,1.3,1.2,2.2,1.2
		c0.4,0,0.7-0.1,1-0.2c0.3-0.1,0.6-0.2,0.8-0.4L106.9,124.9L106.9,124.9z M113.9,119.9h-4.3v5.4h-1.2v-11.6h1.2v5.1h4.3v-5.1h1.2
		v11.6h-1.2V119.9L113.9,119.9z M124.9,122h-3.3l-0.9,3.3h-1.2l3.5-11.8h0.7l3.5,11.8h-1.3L124.9,122L124.9,122z M121.9,120.9h2.7
		l-1-3.6l-0.3-1.7h0l-0.3,1.8L121.9,120.9L121.9,120.9z M130,117.9l-0.7-1.8h0l0.2,1.8v7.4h-1.2v-11.8h0.7l4.3,7.5l0.7,1.7h0.1
		l-0.2-1.7v-7.4h1.2v11.8h-0.8L130,117.9L130,117.9z M137.2,113.7c0.2,0,0.4-0.1,0.6-0.1c0.2,0,0.4,0,0.7,0c0.2,0,0.4,0,0.7,0
		c0.2,0,0.4,0,0.6,0c0.8,0,1.5,0.1,2.1,0.4c0.6,0.3,1,0.7,1.4,1.2c0.4,0.5,0.6,1.1,0.8,1.9c0.2,0.7,0.2,1.5,0.2,2.4
		c0,0.8-0.1,1.6-0.2,2.3c-0.1,0.7-0.4,1.4-0.8,1.9s-0.8,1-1.4,1.3c-0.6,0.3-1.3,0.5-2.2,0.5c-0.1,0-0.3,0-0.5,0c-0.2,0-0.5,0-0.7,0
		c-0.2,0-0.5,0-0.7,0c-0.2,0-0.4,0-0.5,0V113.7L137.2,113.7z M139.8,114.7c-0.1,0-0.2,0-0.4,0c-0.1,0-0.3,0-0.4,0
		c-0.1,0-0.2,0-0.3,0c-0.1,0-0.2,0-0.3,0v9.5c0,0,0.1,0,0.2,0c0.1,0,0.2,0,0.4,0c0.1,0,0.2,0,0.4,0c0.1,0,0.2,0,0.3,0
		c0.6,0,1.1-0.1,1.5-0.4c0.4-0.3,0.7-0.6,1-1.1c0.2-0.4,0.4-1,0.5-1.6c0.1-0.6,0.1-1.2,0.1-1.9c0-0.6,0-1.2-0.1-1.7
		c-0.1-0.6-0.2-1.1-0.5-1.5c-0.2-0.4-0.5-0.8-0.9-1.1C140.9,114.8,140.4,114.7,139.8,114.7L139.8,114.7z M155.1,114.8h-2.9v10.5H151
		v-10.5h-2.9v-1.1h7V114.8L155.1,114.8z M156.4,113.8c0.4-0.1,0.8-0.2,1.2-0.2c0.4,0,0.8-0.1,1.2-0.1c0.4,0,0.8,0.1,1.2,0.2
		c0.4,0.1,0.7,0.3,1,0.5c0.3,0.2,0.5,0.6,0.7,1c0.2,0.4,0.3,0.9,0.3,1.5c0,0.9-0.2,1.7-0.6,2.2c-0.4,0.6-0.9,0.9-1.5,1.1l0.6,0.6
		l2.3,4.6h-1.4l-2.5-5.1l-1.2-0.2v5.3h-1.2V113.8L156.4,113.8z M157.7,119.2h1c0.6,0,1.1-0.2,1.5-0.6c0.4-0.4,0.5-1,0.5-1.8
		c0-0.6-0.2-1.1-0.5-1.5c-0.3-0.4-0.8-0.6-1.4-0.6c-0.2,0-0.5,0-0.7,0c-0.2,0-0.4,0-0.5,0.1V119.2L157.7,119.2z M168.5,122h-3.3
		l-0.9,3.3h-1.2l3.5-11.8h0.7l3.5,11.8h-1.3L168.5,122L168.5,122z M165.5,120.9h2.7l-1-3.6l-0.3-1.7h0l-0.3,1.8L165.5,120.9
		L165.5,120.9z M172.1,113.7h1.2v11.6h-1.2V113.7L172.1,113.7z M177.5,117.9l-0.7-1.8h0l0.2,1.8v7.4h-1.2v-11.8h0.7l4.3,7.5l0.7,1.7
		h0.1l-0.2-1.7v-7.4h1.2v11.8h-0.8L177.5,117.9L177.5,117.9z M185,113.7h1.2v11.6H185V113.7L185,113.7z M190.4,117.9l-0.7-1.8h0
		l0.2,1.8v7.4h-1.2v-11.8h0.7l4.3,7.5l0.7,1.7h0.1l-0.2-1.7v-7.4h1.2v11.8h-0.8L190.4,117.9L190.4,117.9z M200.7,119.5h3.2v5.1
		c-0.3,0.3-0.7,0.5-1.2,0.7c-0.5,0.1-1,0.2-1.5,0.2c-0.6,0-1.2-0.1-1.7-0.3c-0.5-0.2-0.9-0.6-1.3-1.1c-0.4-0.5-0.6-1.1-0.8-1.9
		c-0.2-0.8-0.3-1.7-0.3-2.7c0-1.1,0.1-2,0.3-2.8c0.2-0.8,0.5-1.4,0.9-1.9c0.4-0.5,0.8-0.8,1.3-1.1c0.5-0.2,1-0.3,1.6-0.3
		c0.5,0,1,0,1.3,0.1c0.4,0.1,0.7,0.2,0.9,0.3l-0.3,1.1c-0.2-0.1-0.5-0.2-0.8-0.3c-0.3-0.1-0.7-0.1-1.1-0.1c-0.4,0-0.8,0.1-1.1,0.2
		c-0.4,0.2-0.7,0.4-1,0.8c-0.3,0.4-0.5,0.9-0.7,1.5c-0.2,0.6-0.2,1.4-0.2,2.3c0,1.7,0.3,2.9,0.8,3.7c0.5,0.8,1.2,1.2,2.2,1.2
		c0.6,0,1.1-0.1,1.4-0.4v-3.4l-2.1-0.3V119.5z"/>
	<g>
		<g>
			<g>
				<path class="st0" d="M112.2,66.2c0,1,0.2,1.5,0.7,1.5c0.8,0,1.7-0.2,2.8-0.7l1.2,2.9c-3.2,2.4-6.4,3.6-9.4,3.6
					c-1.8,0-3.2-0.5-4.2-1.5c-1-1-1.6-2.4-1.6-4.2c0-1.8,0.9-6,2.7-12.4c1.8-6.4,2.8-10.9,2.9-13.5c0-0.6-0.2-1.2-0.6-1.9
					c-0.4-0.7-0.8-1.3-1.1-1.7l-0.6-0.6l0.1-1.1c2.2-0.7,6.1-1.1,11.7-1.1c0.6,1.1,0.8,2.2,0.8,3.4c0,2-0.9,6.5-2.8,13.3
					C113.1,59.1,112.2,63.7,112.2,66.2z"/>
				<path class="st1" d="M147.2,52.9h-12.9v20h-8.5V25.6h8.5v19.4h12.9V25.6h8.5v47.3h-8.5V52.9L147.2,52.9z M180.9,62.2h-11.1
					L167,72.9h-8.4l13.7-47.6h6.7l13.8,47.6h-8.9L180.9,62.2L180.9,62.2z M171.6,55.2h7.8l-2.7-11l-1.1-7.4h-0.3l-1.1,7.5
					L171.6,55.2L171.6,55.2z M195.6,26.1c1.8-0.4,3.8-0.7,5.9-0.9c2.1-0.2,3.9-0.3,5.5-0.3c1.9,0,3.8,0.2,5.7,0.6
					c1.8,0.4,3.5,1.1,4.9,2.1c1.4,1,2.6,2.4,3.4,4.1c0.9,1.7,1.3,3.9,1.3,6.6c0,3.8-0.7,6.9-2.1,9.4c-1.4,2.4-3.4,4.1-5.8,5l2.7,2.2
					l8.7,18.1H216l-8.2-18.6l-3.6-0.9v19.5h-8.5V26.1L195.6,26.1z M204.1,47.6h2.9c2.1,0,3.7-0.6,4.8-1.9c1.1-1.3,1.6-3.3,1.6-6
					c0-2-0.5-3.7-1.4-5c-0.9-1.3-2.3-1.9-4.3-1.9c-0.7,0-1.4,0-2.1,0.1c-0.7,0-1.2,0.1-1.6,0.3V47.6L204.1,47.6z M255.5,33.5v-7.8
					h-30.9v7.8h11.2v39.4h8.5V33.5H255.5z"/>
			</g>
			<circle class="st2" cx="111.9" cy="27.1" r="5.5"/>
		</g>
		<g>
			<path class="st2" d="M22.6,11.2C7.7,21.3,0.1,40.2,5,58.6c6.3,23.3,30.2,37.2,53.6,30.9C77.6,84.4,90.4,67.5,91,48.7
				C88.3,64.1,77,77.3,61,81.7c-22,5.9-44.7-7.2-50.6-29.2C6.3,37,11.5,21.2,22.6,11.2L22.6,11.2z"/>
			<path class="st3" d="M71.5,71.5c12.6-8.6,19-24.5,14.8-40C81,11.8,60.8,0.1,41.1,5.4C25,9.7,14.3,24,13.7,39.8
				C16,26.8,25.5,15.7,39.1,12c18.6-5,37.7,6,42.7,24.6C85.2,49.7,80.8,63,71.5,71.5L71.5,71.5z"/>
			<g>
				<path class="st2" d="M22.9,47.7c-0.9-2.2-1.4-4.5-1.4-6.8c0-8.3,6.4-14.7,14.8-14.7c4.6,0,9.1,2.1,12.1,5.6
					c3-3.5,7.5-5.6,12.1-5.6c8.3,0,14.8,6.4,14.8,14.7c0,2.3-0.5,4.5-1.4,6.7h-6.7l-1.6-2.7c-0.3-0.5-1-0.4-1.2,0.2l-2,5.6l-0.8-2.5
					c-0.1-0.3-0.3-0.5-0.6-0.5H58l-1.6-7.8c-0.2-0.8-1.2-0.7-1.3,0l-1.6,12l-0.4-3.7c-0.1-0.7-0.8-0.6-1.3-0.6l-1.2-4
					c-0.2-0.7-1.2-0.6-1.3,0.1l-0.7,3.9h-3l-0.7-3c-0.2-0.7-1.1-0.7-1.3-0.1l-1.3,4.4l-3-15c-0.2-0.7-1.2-0.7-1.3,0.1l-2.7,19.1
					c-0.2-0.8-0.9-5-1.5-5.3C33.5,47.7,28.1,47.7,22.9,47.7z"/>
				<path class="st3" d="M48.3,75.5l-3.7-3.8C34.5,62.8,26.9,56,23.5,49H33l1.8,7.8c0.2,0.7,1.2,0.7,1.3-0.1l2.7-18.9l2.8,13.9
					c0.2,0.7,1.1,0.7,1.3,0.1l1.4-4.6c0.2,0.8,0.2,1.7,0.9,1.7h4.1c0.8,0,0.7-1.1,0.9-2.3c0.7,2.3,0.5,2.3,1.7,2.3l0.9,8.4
					c0.1,0.8,1.2,0.8,1.3,0.1l1.8-13.5l0.9,4.5c0.1,0.3,0.4,0.5,0.7,0.5h2.9l1.2,4c0.2,0.6,1,0.7,1.2,0.1l2.3-6.2
					c1.1,1.8,1.1,2.1,1.8,2.2c0.1,0,2.9,0,6.3,0c-3.4,7-11,13.8-21.1,22.8L48.3,75.5L48.3,75.5z M60.9,47.6"/>
			</g>
		</g>
	</g>
</g>
</svg>
